<svg xmlns="http://www.w3.org/2000/svg" width="1200" height="400" viewBox="0 0 1200 400" fill="none"><rect width="1200" height="400" rx="24" fill="#FFFDF7"/><text x="55" y="72" fill="#18181B" font-family="JetBrains Mono, monospace" font-size="24" font-weight="700">rlp-desk expansion path</text><rect x="55" y="110" width="220" height="90" rx="16" fill="#FFFFFF" stroke="#DDD6C8" stroke-width="3"/><text x="85" y="160" fill="#18181B" font-family="IBM Plex Sans, sans-serif" font-size="20" font-weight="700">Agent mode</text><path d="M285 155H345" stroke="#EC4899" stroke-width="5" stroke-linecap="round"/><path d="M340 142L365 155L340 168" fill="#EC4899"/><rect x="375" y="110" width="220" height="90" rx="16" fill="#FFFFFF" stroke="#DDD6C8" stroke-width="3"/><text x="405" y="160" fill="#18181B" font-family="IBM Plex Sans, sans-serif" font-size="20" font-weight="700">Codex support</text><path d="M605 155H665" stroke="#EC4899" stroke-width="5" stroke-linecap="round"/><path d="M660 142L685 155L660 168" fill="#EC4899"/><rect x="695" y="110" width="220" height="90" rx="16" fill="#FFFFFF" stroke="#DDD6C8" stroke-width="3"/><text x="725" y="160" fill="#18181B" font-family="IBM Plex Sans, sans-serif" font-size="20" font-weight="700">per-US verify</text><path d="M925 155H985" stroke="#EC4899" stroke-width="5" stroke-linecap="round"/><path d="M980 142L1005 155L980 168" fill="#EC4899"/><rect x="1015" y="110" width="130" height="90" rx="16" fill="#18181B"/><text x="1040" y="150" fill="#FFFFFF" font-family="IBM Plex Sans, sans-serif" font-size="18" font-weight="700">consensus</text><text x="1040" y="176" fill="#FFFFFF" font-family="IBM Plex Sans, sans-serif" font-size="18" font-weight="700">+ self-verify</text><text x="55" y="285" fill="#3F3F46" font-family="IBM Plex Sans, sans-serif" font-size="18">핵심은 planning 기능을 늘리는 게 아니라, execution/verification loop를 얼마나 더 믿을 수 있게 만들 수 있는가다.</text></svg>